<?xml version="1.0" encoding="utf-8"?>
<!-- Generator: Adobe Illustrator 16.0.0, SVG Export Plug-In . SVG Version: 6.00 Build 0)  -->
<!DOCTYPE svg PUBLIC "-//W3C//DTD SVG 1.1//EN" "http://www.w3.org/Graphics/SVG/1.1/DTD/svg11.dtd">
<svg version="1.1" id="Layer_1" xmlns="http://www.w3.org/2000/svg" xmlns:xlink="http://www.w3.org/1999/xlink" x="0px" y="0px"
	 width="300px" height="72.449px" viewBox="0 0 300 72.449" enable-background="new 0 0 300 72.449" xml:space="preserve">
<title>Freelancer Logo</title>
<g>
	<path fill="#29B2FE" d="M56.897,0l6.624,9.29L97.036,0 M22.075,72.333l18.13-17.726L29.293,42.898 M54.152,0l-9.69,8.738
		L60.76,9.346 M16.482,0l3.48,7.133l19.18,1.195 M26.75,36.986l14.17-26.435L-0.23,8.328 M28.4,38.662L41.785,53.04L56.55,38.566
		l4.582-26.957l-17.993-0.918"/>
</g>
<path fill="#161F2B" d="M85.22,33.902h-3.67l-3.214,20.286c-0.084,0.532-0.587,0.967-1.12,0.967h-7.34
	c-0.532,0-0.897-0.435-0.813-0.967l4.506-28.45c1.14-7.195,4.772-8.79,9.747-8.79c1.545,0,3.164,0.146,4.43,0.387
	c0.564,0.097,0.945,0.435,0.86,0.966l-0.727,4.59c-0.084,0.53-0.58,0.917-1.16,0.917h-2.027c-1.207,0-1.622,0.482-1.85,1.932
	l-0.207,1.303h3.67c0.532,0,0.897,0.434,0.813,0.967l-0.78,4.926c-0.086,0.532-0.59,0.966-1.12,0.966H85.22z M103.54,34.24h-0.675
	c-2.077,0-4.103,0.29-5.73,1.11l-2.968,18.74c-0.084,0.533-0.555,1.063-1.135,1.063h-7.244c-0.58,0-0.978-0.529-0.894-1.062
	l4.13-26.08c0.085-0.533,0.443-0.968,1.12-0.968h6.954c0.676,0,0.928,0.242,0.813,0.967l-0.183,1.158
	c2.533-2.27,4.31-2.512,6.87-2.512c0.82,0,0.934,0.193,0.812,0.967l-0.934,5.892C104.386,34.095,104.169,34.24,103.54,34.24
	L103.54,34.24z M127.806,43.707h-15.02l-0.014,0.096c-0.406,2.561,0.405,4.153,3.93,4.153c2.56,0,7.33-0.24,9.237-0.388
	c0.78-0.049,1.046,0.096,0.93,0.82l-0.687,4.348c-0.122,0.773-0.37,1.111-1.18,1.354c-3.252,1.016-6.66,1.498-10.717,1.498
	c-6.52,0-12.013-3.43-10.552-12.654l0.505-3.188c1.345-8.5,7.005-13.137,14.926-13.137c8.452,0,11.514,5.36,10.283,13.136
	l-0.46,2.899c-0.1,0.627-0.605,1.061-1.184,1.061L127.806,43.707z M120.768,38.441c0.46-2.897-0.425-4.636-2.84-4.636
	c-2.318,0-3.848,1.74-4.307,4.636l-0.022,0.146h7.147L120.768,38.441L120.768,38.441z M154.538,43.707h-15.02l-0.014,0.096
	c-0.406,2.561,0.405,4.153,3.93,4.153c2.56,0,7.33-0.24,9.237-0.388c0.78-0.049,1.048,0.096,0.933,0.82l-0.688,4.348
	c-0.122,0.773-0.37,1.111-1.18,1.354c-3.252,1.016-6.66,1.498-10.717,1.498c-6.52,0-12.013-3.43-10.552-12.654l0.505-3.188
	c1.347-8.5,7.007-13.137,14.928-13.137c8.452,0,11.514,5.36,10.284,13.136l-0.459,2.899c-0.1,0.627-0.604,1.061-1.184,1.061
	L154.538,43.707z M147.498,38.441c0.46-2.897-0.424-4.636-2.838-4.636c-2.318,0-3.85,1.74-4.308,4.636l-0.023,0.146h7.146
	L147.498,38.441z M164.34,55.154h-7.292c-0.532,0-0.978-0.53-0.894-1.063l5.592-35.308c0.084-0.53,0.684-0.965,1.215-0.965h7.293
	c0.532,0,0.896,0.433,0.813,0.964l-5.592,35.308c-0.084,0.53-0.603,1.062-1.134,1.062L164.34,55.154z M190.007,55.154h-6.713
	c-0.53,0-0.897-0.435-0.813-0.967l0.162-1.014c-2.05,1.352-4.632,2.414-7.287,2.414c-3.815,0-7.922-2.125-6.891-8.645l0.092-0.58
	c0.918-5.797,5.643-7.873,13.707-7.873h2.077l0.222-1.4c0.375-2.366-0.33-2.8-2.744-2.8c-2.704,0-7.09,0.24-8.457,0.338
	c-0.828,0.048-1-0.387-0.91-0.967l0.742-4.684c0.115-0.724,0.541-0.965,1.15-1.16c1.67-0.482,5.93-1.16,9.022-1.16
	c7.003,0,11.724,2.513,10.47,10.434l-2.708,17.099C191.043,54.721,190.538,55.155,190.007,55.154L190.007,55.154z M183.834,43.514
	h-2.366c-2.415,0-3.503,0.773-3.823,2.801l-0.078,0.483c-0.26,1.644,0.774,2.126,2.127,2.126c1.16,0,2.517-0.34,3.399-0.724
	L183.834,43.514L183.834,43.514z M217.898,55.154h-7.244c-0.58,0-0.979-0.53-0.895-1.063l2.594-16.374
	c0.404-2.56-0.285-3.38-2.461-3.38c-1.109,0-2.58,0.433-3.781,1.014l-2.967,18.74c-0.084,0.532-0.556,1.063-1.136,1.063h-7.243
	c-0.58,0-0.979-0.53-0.895-1.063L198,28.01c0.085-0.532,0.588-0.967,1.12-0.967h6.713c0.532,0,0.897,0.434,0.813,0.967l-0.176,1.11
	c2.864-1.932,5.653-2.464,8.359-2.464c7.58,0,7.706,5.313,6.796,11.06l-2.593,16.375C218.948,54.624,218.477,55.155,217.898,55.154
	L217.898,55.154z M239.323,54.816c-1.703,0.386-3.89,0.771-6.738,0.771c-7.39,0-10.793-4.732-9.538-12.654l0.574-3.621
	c1.248-7.874,6.166-12.704,13.555-12.704c2.85,0,5.195,0.433,6.494,0.77c0.604,0.146,0.904,0.388,0.805,1.016l-0.865,5.458
	c-0.092,0.58-0.449,1.014-1.159,0.917c-1.62-0.143-3.134-0.337-5.5-0.337c-2.076,0-3.49,1.305-4.056,4.879l-0.574,3.621
	c-0.566,3.574,0.443,4.83,2.52,4.83c2.365,0,3.926-0.097,5.6-0.291c0.74-0.095,0.969,0.291,0.871,0.918l-0.858,5.41
	C240.352,54.432,239.975,54.671,239.323,54.816L239.323,54.816z M267.67,43.707h-15.02l-0.016,0.096
	c-0.406,2.561,0.405,4.153,3.93,4.153c2.561,0,7.33-0.24,9.237-0.388c0.78-0.049,1.048,0.096,0.933,0.82l-0.689,4.348
	c-0.12,0.773-0.368,1.111-1.18,1.354c-3.25,1.016-6.66,1.498-10.717,1.498c-6.52,0-12.014-3.43-10.553-12.654l0.506-3.188
	c1.346-8.5,7.006-13.137,14.926-13.137c8.451,0,11.515,5.36,10.283,13.136l-0.461,2.899c-0.1,0.627-0.604,1.061-1.183,1.061
	L267.67,43.707z M260.63,38.441c0.46-2.897-0.424-4.636-2.84-4.636c-2.317,0-3.849,1.74-4.308,4.636l-0.022,0.146h7.147
	L260.63,38.441z M282.857,27.043l-4.301,27.048c-0.084,0.533-0.555,1.063-1.135,1.063h-7.244c-0.58,0-0.978-0.53-0.894-1.063
	l2.854-17.894l10.719-9.153V27.043z"/>
<path fill="#29B2FE" d="M285.326,27.043l-1.484,9.28l15.93-9.28"/>
</svg>
