<?xml version="1.0" encoding="utf-8"?>
<!-- Generator: Adobe Illustrator 16.0.0, SVG Export Plug-In . SVG Version: 6.00 Build 0)  -->
<!DOCTYPE svg PUBLIC "-//W3C//DTD SVG 1.1//EN" "http://www.w3.org/Graphics/SVG/1.1/DTD/svg11.dtd">
<svg version="1.1" id="Layer_1" xmlns="http://www.w3.org/2000/svg" xmlns:xlink="http://www.w3.org/1999/xlink" x="0px" y="0px"
	 width="2500px" height="747px" viewBox="0 0 2500 747" enable-background="new 0 0 2500 747" xml:space="preserve">
<path fill="#6FDA44" d="M684.17,471.771c-40.627,0-78.694-17.2-113.281-45.2l8.423-39.527l0.366-1.465
	c7.499-42.086,31.291-112.729,104.492-112.729c54.896,0,99.551,44.654,99.551,99.551
	C783.535,427.118,738.886,471.771,684.17,471.771L684.17,471.771z M684.17,172.02c-93.517,0-165.98,60.756-195.441,160.673
	c-45.02-67.528-79.06-148.595-99.004-216.854h-100.65v261.87c0,51.606-42.091,93.692-93.697,93.692s-93.692-42.086-93.692-93.692
	v-261.87H1.026v261.87c-0.366,107.24,86.925,195.26,194.161,195.26c107.241,0,194.533-88.02,194.533-195.26v-43.917
	c19.578,40.807,43.551,81.979,72.649,118.582l-61.674,289.865h103.032l44.649-210.263c39.161,25.07,84.182,40.812,135.788,40.812
	c110.346,0,200.2-90.402,200.2-200.753c0-110.165-89.854-200.015-200.2-200.015H684.17z"/>
<path fill="#494949" d="M1191.622,183.367l64.964,261.87l71.557-261.87h85.274l-109.979,378.441h-85.28l-67.522-263.521
	l-67.348,263.335h-85.275L888.022,183.186h85.28l71.551,261.87l64.965-261.87h81.799v0.186L1191.622,183.367z M1617.461,172.02
	c-110.713,0-200.382,89.85-200.382,200.381c0,110.717,89.85,200.387,200.382,200.387c110.717,0,200.566-89.67,200.566-200.387
	C1818.027,261.689,1728.178,172.02,1617.461,172.02z M1617.461,490.438c-65.146,0-117.851-52.705-117.851-117.851
	c0-65.15,52.886-117.85,117.851-117.85c65.149,0,117.85,52.7,117.85,117.85C1735.311,437.552,1682.61,490.438,1617.461,490.438z
	 M2061.599,268.095c-57.274,0-103.574,46.48-103.574,103.574v189.953h-85.832V183.367h85.832v58.192
	c0,0,36.599-58.378,111.811-58.378h26.351v84.914H2061.599L2061.599,268.095z M2349.643,357.764
	c60.932-34.405,102.295-99.736,102.295-174.583h-85.832c0,63.133-51.234,114.374-114.369,114.374h-11.531V0.732h-85.822v560.885
	h85.822V383.382h10.253c8.417,0,19.397,5.493,24.338,12.26l121.874,165.98h102.847L2349.643,357.764L2349.643,357.764z"/>
</svg>
